%TF.GenerationSoftware,KiCad,Pcbnew,(6.0.2)*%
%TF.CreationDate,2022-03-16T08:15:24+01:00*%
%TF.ProjectId,Banc_de_test_2,42616e63-5f64-4655-9f74-6573745f322e,rev?*%
%TF.SameCoordinates,Original*%
%TF.FileFunction,Legend,Top*%
%TF.FilePolarity,Positive*%
%FSLAX46Y46*%
G04 Gerber Fmt 4.6, Leading zero omitted, Abs format (unit mm)*
G04 Created by KiCad (PCBNEW (6.0.2)) date 2022-03-16 08:15:24*
%MOMM*%
%LPD*%
G01*
G04 APERTURE LIST*
%ADD10C,0.150000*%
%ADD11C,0.120000*%
%ADD12O,1.727200X2.032000*%
%ADD13C,4.064000*%
G04 APERTURE END LIST*
D10*
X139390380Y-120999285D02*
X139390380Y-121570714D01*
X139390380Y-121285000D02*
X138390380Y-121285000D01*
X138533238Y-121380238D01*
X138628476Y-121475476D01*
X138676095Y-121570714D01*
%TO.C,P1*%
X147089904Y-121737380D02*
X147089904Y-120737380D01*
X147470857Y-120737380D01*
X147566095Y-120785000D01*
X147613714Y-120832619D01*
X147661333Y-120927857D01*
X147661333Y-121070714D01*
X147613714Y-121165952D01*
X147566095Y-121213571D01*
X147470857Y-121261190D01*
X147089904Y-121261190D01*
X148613714Y-121737380D02*
X148042285Y-121737380D01*
X148328000Y-121737380D02*
X148328000Y-120737380D01*
X148232761Y-120880238D01*
X148137523Y-120975476D01*
X148042285Y-121023095D01*
%TO.C,P2*%
X167663904Y-121737380D02*
X167663904Y-120737380D01*
X168044857Y-120737380D01*
X168140095Y-120785000D01*
X168187714Y-120832619D01*
X168235333Y-120927857D01*
X168235333Y-121070714D01*
X168187714Y-121165952D01*
X168140095Y-121213571D01*
X168044857Y-121261190D01*
X167663904Y-121261190D01*
X168616285Y-120832619D02*
X168663904Y-120785000D01*
X168759142Y-120737380D01*
X168997238Y-120737380D01*
X169092476Y-120785000D01*
X169140095Y-120832619D01*
X169187714Y-120927857D01*
X169187714Y-121023095D01*
X169140095Y-121165952D01*
X168568666Y-121737380D01*
X169187714Y-121737380D01*
%TO.C,P3*%
X140485904Y-78811380D02*
X140485904Y-77811380D01*
X140866857Y-77811380D01*
X140962095Y-77859000D01*
X141009714Y-77906619D01*
X141057333Y-78001857D01*
X141057333Y-78144714D01*
X141009714Y-78239952D01*
X140962095Y-78287571D01*
X140866857Y-78335190D01*
X140485904Y-78335190D01*
X141390666Y-77811380D02*
X142009714Y-77811380D01*
X141676380Y-78192333D01*
X141819238Y-78192333D01*
X141914476Y-78239952D01*
X141962095Y-78287571D01*
X142009714Y-78382809D01*
X142009714Y-78620904D01*
X141962095Y-78716142D01*
X141914476Y-78763761D01*
X141819238Y-78811380D01*
X141533523Y-78811380D01*
X141438285Y-78763761D01*
X141390666Y-78716142D01*
%TO.C,P4*%
X164869904Y-78811380D02*
X164869904Y-77811380D01*
X165250857Y-77811380D01*
X165346095Y-77859000D01*
X165393714Y-77906619D01*
X165441333Y-78001857D01*
X165441333Y-78144714D01*
X165393714Y-78239952D01*
X165346095Y-78287571D01*
X165250857Y-78335190D01*
X164869904Y-78335190D01*
X166298476Y-78144714D02*
X166298476Y-78811380D01*
X166060380Y-77763761D02*
X165822285Y-78478047D01*
X166441333Y-78478047D01*
%TO.C,C1*%
X127321333Y-104152142D02*
X127273714Y-104199761D01*
X127130857Y-104247380D01*
X127035619Y-104247380D01*
X126892761Y-104199761D01*
X126797523Y-104104523D01*
X126749904Y-104009285D01*
X126702285Y-103818809D01*
X126702285Y-103675952D01*
X126749904Y-103485476D01*
X126797523Y-103390238D01*
X126892761Y-103295000D01*
X127035619Y-103247380D01*
X127130857Y-103247380D01*
X127273714Y-103295000D01*
X127321333Y-103342619D01*
X128273714Y-104247380D02*
X127702285Y-104247380D01*
X127988000Y-104247380D02*
X127988000Y-103247380D01*
X127892761Y-103390238D01*
X127797523Y-103485476D01*
X127702285Y-103533095D01*
%TO.C,U1*%
X144018095Y-97682380D02*
X144018095Y-98491904D01*
X144065714Y-98587142D01*
X144113333Y-98634761D01*
X144208571Y-98682380D01*
X144399047Y-98682380D01*
X144494285Y-98634761D01*
X144541904Y-98587142D01*
X144589523Y-98491904D01*
X144589523Y-97682380D01*
X145589523Y-98682380D02*
X145018095Y-98682380D01*
X145303809Y-98682380D02*
X145303809Y-97682380D01*
X145208571Y-97825238D01*
X145113333Y-97920476D01*
X145018095Y-97968095D01*
%TO.C,U3*%
X138176095Y-79867380D02*
X138176095Y-80676904D01*
X138223714Y-80772142D01*
X138271333Y-80819761D01*
X138366571Y-80867380D01*
X138557047Y-80867380D01*
X138652285Y-80819761D01*
X138699904Y-80772142D01*
X138747523Y-80676904D01*
X138747523Y-79867380D01*
X139128476Y-79867380D02*
X139747523Y-79867380D01*
X139414190Y-80248333D01*
X139557047Y-80248333D01*
X139652285Y-80295952D01*
X139699904Y-80343571D01*
X139747523Y-80438809D01*
X139747523Y-80676904D01*
X139699904Y-80772142D01*
X139652285Y-80819761D01*
X139557047Y-80867380D01*
X139271333Y-80867380D01*
X139176095Y-80819761D01*
X139128476Y-80772142D01*
%TO.C,R4*%
X128611333Y-93627380D02*
X128278000Y-93151190D01*
X128039904Y-93627380D02*
X128039904Y-92627380D01*
X128420857Y-92627380D01*
X128516095Y-92675000D01*
X128563714Y-92722619D01*
X128611333Y-92817857D01*
X128611333Y-92960714D01*
X128563714Y-93055952D01*
X128516095Y-93103571D01*
X128420857Y-93151190D01*
X128039904Y-93151190D01*
X129468476Y-92960714D02*
X129468476Y-93627380D01*
X129230380Y-92579761D02*
X128992285Y-93294047D01*
X129611333Y-93294047D01*
%TO.C,R3*%
X129373333Y-119662380D02*
X129040000Y-119186190D01*
X128801904Y-119662380D02*
X128801904Y-118662380D01*
X129182857Y-118662380D01*
X129278095Y-118710000D01*
X129325714Y-118757619D01*
X129373333Y-118852857D01*
X129373333Y-118995714D01*
X129325714Y-119090952D01*
X129278095Y-119138571D01*
X129182857Y-119186190D01*
X128801904Y-119186190D01*
X129706666Y-118662380D02*
X130325714Y-118662380D01*
X129992380Y-119043333D01*
X130135238Y-119043333D01*
X130230476Y-119090952D01*
X130278095Y-119138571D01*
X130325714Y-119233809D01*
X130325714Y-119471904D01*
X130278095Y-119567142D01*
X130230476Y-119614761D01*
X130135238Y-119662380D01*
X129849523Y-119662380D01*
X129754285Y-119614761D01*
X129706666Y-119567142D01*
%TO.C,R2*%
X142073333Y-122202380D02*
X141740000Y-121726190D01*
X141501904Y-122202380D02*
X141501904Y-121202380D01*
X141882857Y-121202380D01*
X141978095Y-121250000D01*
X142025714Y-121297619D01*
X142073333Y-121392857D01*
X142073333Y-121535714D01*
X142025714Y-121630952D01*
X141978095Y-121678571D01*
X141882857Y-121726190D01*
X141501904Y-121726190D01*
X142454285Y-121297619D02*
X142501904Y-121250000D01*
X142597142Y-121202380D01*
X142835238Y-121202380D01*
X142930476Y-121250000D01*
X142978095Y-121297619D01*
X143025714Y-121392857D01*
X143025714Y-121488095D01*
X142978095Y-121630952D01*
X142406666Y-122202380D01*
X143025714Y-122202380D01*
%TO.C,C2*%
X153523333Y-116907142D02*
X153475714Y-116954761D01*
X153332857Y-117002380D01*
X153237619Y-117002380D01*
X153094761Y-116954761D01*
X152999523Y-116859523D01*
X152951904Y-116764285D01*
X152904285Y-116573809D01*
X152904285Y-116430952D01*
X152951904Y-116240476D01*
X152999523Y-116145238D01*
X153094761Y-116050000D01*
X153237619Y-116002380D01*
X153332857Y-116002380D01*
X153475714Y-116050000D01*
X153523333Y-116097619D01*
X153904285Y-116097619D02*
X153951904Y-116050000D01*
X154047142Y-116002380D01*
X154285238Y-116002380D01*
X154380476Y-116050000D01*
X154428095Y-116097619D01*
X154475714Y-116192857D01*
X154475714Y-116288095D01*
X154428095Y-116430952D01*
X153856666Y-117002380D01*
X154475714Y-117002380D01*
%TO.C,R5*%
X128611333Y-93967380D02*
X128278000Y-93491190D01*
X128039904Y-93967380D02*
X128039904Y-92967380D01*
X128420857Y-92967380D01*
X128516095Y-93015000D01*
X128563714Y-93062619D01*
X128611333Y-93157857D01*
X128611333Y-93300714D01*
X128563714Y-93395952D01*
X128516095Y-93443571D01*
X128420857Y-93491190D01*
X128039904Y-93491190D01*
X129516095Y-92967380D02*
X129039904Y-92967380D01*
X128992285Y-93443571D01*
X129039904Y-93395952D01*
X129135142Y-93348333D01*
X129373238Y-93348333D01*
X129468476Y-93395952D01*
X129516095Y-93443571D01*
X129563714Y-93538809D01*
X129563714Y-93776904D01*
X129516095Y-93872142D01*
X129468476Y-93919761D01*
X129373238Y-93967380D01*
X129135142Y-93967380D01*
X129039904Y-93919761D01*
X128992285Y-93872142D01*
%TO.C,C3*%
X153483333Y-87007142D02*
X153435714Y-87054761D01*
X153292857Y-87102380D01*
X153197619Y-87102380D01*
X153054761Y-87054761D01*
X152959523Y-86959523D01*
X152911904Y-86864285D01*
X152864285Y-86673809D01*
X152864285Y-86530952D01*
X152911904Y-86340476D01*
X152959523Y-86245238D01*
X153054761Y-86150000D01*
X153197619Y-86102380D01*
X153292857Y-86102380D01*
X153435714Y-86150000D01*
X153483333Y-86197619D01*
X153816666Y-86102380D02*
X154435714Y-86102380D01*
X154102380Y-86483333D01*
X154245238Y-86483333D01*
X154340476Y-86530952D01*
X154388095Y-86578571D01*
X154435714Y-86673809D01*
X154435714Y-86911904D01*
X154388095Y-87007142D01*
X154340476Y-87054761D01*
X154245238Y-87102380D01*
X153959523Y-87102380D01*
X153864285Y-87054761D01*
X153816666Y-87007142D01*
%TO.C,U4*%
X163576095Y-87947380D02*
X163576095Y-88756904D01*
X163623714Y-88852142D01*
X163671333Y-88899761D01*
X163766571Y-88947380D01*
X163957047Y-88947380D01*
X164052285Y-88899761D01*
X164099904Y-88852142D01*
X164147523Y-88756904D01*
X164147523Y-87947380D01*
X165052285Y-88280714D02*
X165052285Y-88947380D01*
X164814190Y-87899761D02*
X164576095Y-88614047D01*
X165195142Y-88614047D01*
%TO.C,R6*%
X142073333Y-112382380D02*
X141740000Y-111906190D01*
X141501904Y-112382380D02*
X141501904Y-111382380D01*
X141882857Y-111382380D01*
X141978095Y-111430000D01*
X142025714Y-111477619D01*
X142073333Y-111572857D01*
X142073333Y-111715714D01*
X142025714Y-111810952D01*
X141978095Y-111858571D01*
X141882857Y-111906190D01*
X141501904Y-111906190D01*
X142930476Y-111382380D02*
X142740000Y-111382380D01*
X142644761Y-111430000D01*
X142597142Y-111477619D01*
X142501904Y-111620476D01*
X142454285Y-111810952D01*
X142454285Y-112191904D01*
X142501904Y-112287142D01*
X142549523Y-112334761D01*
X142644761Y-112382380D01*
X142835238Y-112382380D01*
X142930476Y-112334761D01*
X142978095Y-112287142D01*
X143025714Y-112191904D01*
X143025714Y-111953809D01*
X142978095Y-111858571D01*
X142930476Y-111810952D01*
X142835238Y-111763333D01*
X142644761Y-111763333D01*
X142549523Y-111810952D01*
X142501904Y-111858571D01*
X142454285Y-111953809D01*
%TO.C,R1*%
X128611333Y-103787380D02*
X128278000Y-103311190D01*
X128039904Y-103787380D02*
X128039904Y-102787380D01*
X128420857Y-102787380D01*
X128516095Y-102835000D01*
X128563714Y-102882619D01*
X128611333Y-102977857D01*
X128611333Y-103120714D01*
X128563714Y-103215952D01*
X128516095Y-103263571D01*
X128420857Y-103311190D01*
X128039904Y-103311190D01*
X129563714Y-103787380D02*
X128992285Y-103787380D01*
X129278000Y-103787380D02*
X129278000Y-102787380D01*
X129182761Y-102930238D01*
X129087523Y-103025476D01*
X128992285Y-103073095D01*
%TO.C,C4*%
X129373333Y-108317142D02*
X129325714Y-108364761D01*
X129182857Y-108412380D01*
X129087619Y-108412380D01*
X128944761Y-108364761D01*
X128849523Y-108269523D01*
X128801904Y-108174285D01*
X128754285Y-107983809D01*
X128754285Y-107840952D01*
X128801904Y-107650476D01*
X128849523Y-107555238D01*
X128944761Y-107460000D01*
X129087619Y-107412380D01*
X129182857Y-107412380D01*
X129325714Y-107460000D01*
X129373333Y-107507619D01*
X130230476Y-107745714D02*
X130230476Y-108412380D01*
X129992380Y-107364761D02*
X129754285Y-108079047D01*
X130373333Y-108079047D01*
%TO.C,U2*%
X159242380Y-107441904D02*
X160051904Y-107441904D01*
X160147142Y-107394285D01*
X160194761Y-107346666D01*
X160242380Y-107251428D01*
X160242380Y-107060952D01*
X160194761Y-106965714D01*
X160147142Y-106918095D01*
X160051904Y-106870476D01*
X159242380Y-106870476D01*
X159337619Y-106441904D02*
X159290000Y-106394285D01*
X159242380Y-106299047D01*
X159242380Y-106060952D01*
X159290000Y-105965714D01*
X159337619Y-105918095D01*
X159432857Y-105870476D01*
X159528095Y-105870476D01*
X159670952Y-105918095D01*
X160242380Y-106489523D01*
X160242380Y-105870476D01*
%TO.C,P1*%
X157988000Y-125095000D02*
X157988000Y-122555000D01*
X140208000Y-125095000D02*
X157988000Y-125095000D01*
X157988000Y-122555000D02*
X140208000Y-122555000D01*
X138938000Y-122275000D02*
X137388000Y-122275000D01*
X137388000Y-122275000D02*
X137388000Y-125375000D01*
X137388000Y-125375000D02*
X138938000Y-125375000D01*
X140208000Y-125095000D02*
X140208000Y-122555000D01*
%TO.C,P2*%
X163068000Y-125095000D02*
X163068000Y-122555000D01*
X161798000Y-122275000D02*
X160248000Y-122275000D01*
X175768000Y-122555000D02*
X163068000Y-122555000D01*
X163068000Y-125095000D02*
X175768000Y-125095000D01*
X175768000Y-125095000D02*
X175768000Y-122555000D01*
X160248000Y-122275000D02*
X160248000Y-125375000D01*
X160248000Y-125375000D02*
X161798000Y-125375000D01*
%TO.C,P3*%
X128244000Y-74015000D02*
X128244000Y-77115000D01*
X131064000Y-76835000D02*
X153924000Y-76835000D01*
X153924000Y-76835000D02*
X153924000Y-74295000D01*
X153924000Y-74295000D02*
X131064000Y-74295000D01*
X129794000Y-74015000D02*
X128244000Y-74015000D01*
X128244000Y-77115000D02*
X129794000Y-77115000D01*
X131064000Y-76835000D02*
X131064000Y-74295000D01*
%TO.C,P4*%
X175768000Y-74295000D02*
X157988000Y-74295000D01*
X155168000Y-77115000D02*
X156718000Y-77115000D01*
X157988000Y-76835000D02*
X175768000Y-76835000D01*
X157988000Y-76835000D02*
X157988000Y-74295000D01*
X156718000Y-74015000D02*
X155168000Y-74015000D01*
X175768000Y-76835000D02*
X175768000Y-74295000D01*
X155168000Y-74015000D02*
X155168000Y-77115000D01*
%TO.C,P5*%
X127254000Y-123825000D02*
G75*
G03*
X127254000Y-123825000I-2286000J0D01*
G01*
%TO.C,P6*%
X179324000Y-118745000D02*
G75*
G03*
X179324000Y-118745000I-2286000J0D01*
G01*
%TO.C,P7*%
X128524000Y-75565000D02*
G75*
G03*
X128524000Y-75565000I-2286000J0D01*
G01*
%TO.C,P8*%
X179324000Y-90805000D02*
G75*
G03*
X179324000Y-90805000I-2286000J0D01*
G01*
D11*
%TO.C,C1*%
X129108000Y-107100000D02*
X129108000Y-107165000D01*
X125868000Y-107100000D02*
X125868000Y-107165000D01*
X125868000Y-104925000D02*
X129108000Y-104925000D01*
X125868000Y-104925000D02*
X125868000Y-104990000D01*
X125868000Y-107165000D02*
X129108000Y-107165000D01*
X129108000Y-104925000D02*
X129108000Y-104990000D01*
%TO.C,U1*%
X146533333Y-99230000D02*
X146533333Y-99590000D01*
X150040000Y-99230000D02*
X146533333Y-99230000D01*
X139520000Y-99230000D02*
X139520000Y-109050000D01*
X143026667Y-99230000D02*
X139520000Y-99230000D01*
X146533333Y-99590000D02*
X143026667Y-99590000D01*
X139520000Y-109050000D02*
X150040000Y-109050000D01*
X150040000Y-109050000D02*
X150040000Y-99230000D01*
X143026667Y-99590000D02*
X143026667Y-99230000D01*
%TO.C,U3*%
X146788000Y-81415000D02*
X146788000Y-84955000D01*
X131088000Y-84955000D02*
X131088000Y-81415000D01*
X146788000Y-84955000D02*
X131088000Y-84955000D01*
X144018000Y-84955000D02*
X144018000Y-81415000D01*
X131088000Y-81415000D02*
X146788000Y-81415000D01*
%TO.C,R4*%
X132048000Y-89765000D02*
X132048000Y-89435000D01*
X125508000Y-92175000D02*
X125508000Y-91845000D01*
X125508000Y-89435000D02*
X125508000Y-89765000D01*
X132048000Y-89435000D02*
X125508000Y-89435000D01*
X132048000Y-91845000D02*
X132048000Y-92175000D01*
X132048000Y-92175000D02*
X125508000Y-92175000D01*
%TO.C,R3*%
X126270000Y-115470000D02*
X126270000Y-115800000D01*
X132810000Y-117880000D02*
X132810000Y-118210000D01*
X126270000Y-118210000D02*
X126270000Y-117880000D01*
X132810000Y-118210000D02*
X126270000Y-118210000D01*
X132810000Y-115470000D02*
X126270000Y-115470000D01*
X132810000Y-115800000D02*
X132810000Y-115470000D01*
%TO.C,R2*%
X145510000Y-118340000D02*
X145510000Y-118010000D01*
X145510000Y-120750000D02*
X138970000Y-120750000D01*
X138970000Y-118010000D02*
X138970000Y-118340000D01*
X145510000Y-118010000D02*
X138970000Y-118010000D01*
X138970000Y-120750000D02*
X138970000Y-120420000D01*
X145510000Y-120420000D02*
X145510000Y-120750000D01*
%TO.C,C2*%
X155310000Y-113180000D02*
X152070000Y-113180000D01*
X152070000Y-115420000D02*
X152070000Y-115355000D01*
X155310000Y-115420000D02*
X152070000Y-115420000D01*
X155310000Y-115420000D02*
X155310000Y-115355000D01*
X152070000Y-113245000D02*
X152070000Y-113180000D01*
X155310000Y-113245000D02*
X155310000Y-113180000D01*
%TO.C,R5*%
X132048000Y-94515000D02*
X132048000Y-94845000D01*
X125508000Y-97255000D02*
X132048000Y-97255000D01*
X132048000Y-97255000D02*
X132048000Y-96925000D01*
X125508000Y-94515000D02*
X132048000Y-94515000D01*
X125508000Y-96925000D02*
X125508000Y-97255000D01*
X125508000Y-94845000D02*
X125508000Y-94515000D01*
%TO.C,C3*%
X152030000Y-89955000D02*
X152030000Y-90020000D01*
X155270000Y-87780000D02*
X155270000Y-87845000D01*
X152030000Y-87780000D02*
X155270000Y-87780000D01*
X155270000Y-89955000D02*
X155270000Y-90020000D01*
X152030000Y-87780000D02*
X152030000Y-87845000D01*
X152030000Y-90020000D02*
X155270000Y-90020000D01*
%TO.C,U4*%
X160528000Y-83955000D02*
X160528000Y-87495000D01*
X157758000Y-83955000D02*
X170918000Y-83955000D01*
X157758000Y-87495000D02*
X157758000Y-83955000D01*
X170918000Y-83955000D02*
X170918000Y-87495000D01*
X170918000Y-87495000D02*
X157758000Y-87495000D01*
%TO.C,R6*%
X138970000Y-115670000D02*
X145510000Y-115670000D01*
X145510000Y-115670000D02*
X145510000Y-115340000D01*
X138970000Y-115340000D02*
X138970000Y-115670000D01*
X145510000Y-112930000D02*
X145510000Y-113260000D01*
X138970000Y-113260000D02*
X138970000Y-112930000D01*
X138970000Y-112930000D02*
X145510000Y-112930000D01*
%TO.C,R1*%
X132048000Y-102335000D02*
X125508000Y-102335000D01*
X132048000Y-99595000D02*
X125508000Y-99595000D01*
X125508000Y-102335000D02*
X125508000Y-102005000D01*
X125508000Y-99595000D02*
X125508000Y-99925000D01*
X132048000Y-99925000D02*
X132048000Y-99595000D01*
X132048000Y-102005000D02*
X132048000Y-102335000D01*
%TO.C,C4*%
X134160000Y-109090000D02*
X134160000Y-111095000D01*
X124920000Y-114430000D02*
X134160000Y-114430000D01*
X134160000Y-112425000D02*
X134160000Y-114430000D01*
X124920000Y-112425000D02*
X124920000Y-114430000D01*
X124920000Y-109090000D02*
X134160000Y-109090000D01*
X124920000Y-109090000D02*
X124920000Y-111095000D01*
%TO.C,U2*%
X160790000Y-111990000D02*
X160790000Y-101370000D01*
X164330000Y-104140000D02*
X160790000Y-104140000D01*
X164330000Y-111990000D02*
X160790000Y-111990000D01*
X164330000Y-101370000D02*
X164330000Y-111990000D01*
X160790000Y-101370000D02*
X164330000Y-101370000D01*
%TD*%
D12*
%TO.C,P1*%
X138938000Y-123825000D03*
X141478000Y-123825000D03*
X144018000Y-123825000D03*
X146558000Y-123825000D03*
X149098000Y-123825000D03*
X151638000Y-123825000D03*
X154178000Y-123825000D03*
X156718000Y-123825000D03*
%TD*%
%TO.C,P2*%
X161798000Y-123825000D03*
X164338000Y-123825000D03*
X166878000Y-123825000D03*
X169418000Y-123825000D03*
X171958000Y-123825000D03*
X174498000Y-123825000D03*
%TD*%
%TO.C,P3*%
X129794000Y-75565000D03*
X132334000Y-75565000D03*
X134874000Y-75565000D03*
X137414000Y-75565000D03*
X139954000Y-75565000D03*
X142494000Y-75565000D03*
X145034000Y-75565000D03*
X147574000Y-75565000D03*
X150114000Y-75565000D03*
X152654000Y-75565000D03*
%TD*%
%TO.C,P4*%
X156718000Y-75565000D03*
X159258000Y-75565000D03*
X161798000Y-75565000D03*
X164338000Y-75565000D03*
X166878000Y-75565000D03*
X169418000Y-75565000D03*
X171958000Y-75565000D03*
X174498000Y-75565000D03*
%TD*%
D13*
%TO.C,P5*%
X124968000Y-123825000D03*
%TD*%
%TO.C,P6*%
X177038000Y-118745000D03*
%TD*%
%TO.C,P7*%
X126238000Y-75565000D03*
%TD*%
%TO.C,P8*%
X177038000Y-90805000D03*
%TD*%
M02*
